<svg version="1.1" id="Layer_1" xmlns="http://www.w3.org/2000/svg" xmlns:xlink="http://www.w3.org/1999/xlink" x="0px" y="0px"
	width="100%" viewBox="0 0 500 500" enable-background="new 0 0 500 500" xml:space="preserve">
<path fill="#51C96D" opacity="1.000000" stroke="none" 
	d="
M413.000000,1.000000 
	C421.687561,1.000000 430.375122,1.000000 439.505920,1.360269 
	C438.440643,3.839128 437.198547,6.223941 435.385559,8.038280 
	C322.603088,120.905449 209.773987,233.726013 96.949165,346.550873 
	C67.153069,376.346985 37.378151,406.164429 7.507431,435.885590 
	C5.731668,437.652405 3.186906,438.646362 0.999998,440.000000 
	C1.000000,431.312439 1.000000,422.624878 1.330337,413.381531 
	C3.218539,411.605530 4.924004,410.532990 6.313261,409.144165 
	C140.657333,274.845154 274.979767,140.524460 409.267853,6.169428 
	C410.751129,4.685390 411.766296,2.733492 413.000000,1.000000 
z"/>
<path fill="#48C17E" opacity="1.000000" stroke="none" 
	d="
M476.000000,0.999996 
	C483.666656,1.000000 491.333557,0.975198 498.999603,1.043419 
	C499.669189,1.049377 500.333344,1.666669 500.669617,2.587057 
	C499.017090,4.158803 497.557129,5.003429 496.393097,6.148820 
	C472.182648,29.971277 447.869537,53.691490 423.844788,77.700165 
	C285.638519,215.814087 147.502106,353.997925 9.341658,492.157776 
	C8.163835,493.335571 7.113335,494.698761 5.766098,495.633331 
	C4.324064,496.633667 2.600624,497.228302 1.000003,498.000000 
	C1.000000,490.979034 1.000000,483.958099 1.330470,476.381775 
	C3.219261,474.606171 4.925464,473.533844 6.314981,472.144745 
	C161.658524,316.845764 316.980499,161.525223 472.268616,6.170776 
	C473.752014,4.686700 474.766541,2.733943 476.000000,0.999996 
z"/>
<path fill="#3DB793" opacity="1.000000" stroke="none" 
	d="
M501.000000,68.999992 
	C501.000000,77.020897 501.000000,85.041801 500.669617,93.618370 
	C498.781525,95.393997 497.076111,96.466255 495.687012,97.854897 
	C363.009155,230.487686 230.352921,363.142151 97.731125,495.831024 
	C96.248085,497.314789 95.233337,499.266632 94.000000,501.000000 
	C85.979103,501.000000 77.958199,501.000000 69.500275,500.642212 
	C70.453117,498.279053 71.573944,496.004730 73.271164,494.306519 
	C213.509918,353.984650 353.793457,213.707535 494.074310,73.427719 
	C494.898743,72.603271 495.617279,71.599205 496.586731,71.011108 
	C497.959381,70.178467 499.519806,69.655380 501.000000,68.999992 
z"/>
<path fill="#37B29E" opacity="1.000000" stroke="none" 
	d="
M501.000000,116.000000 
	C501.000000,125.354225 501.000000,134.708450 500.669495,144.618011 
	C498.545258,146.628845 496.604858,147.937500 494.979218,149.561279 
	C449.345093,195.142136 403.806610,240.818863 358.118835,286.345856 
	C302.879456,341.390808 247.509094,396.304352 192.215591,451.295044 
	C177.562332,465.868042 162.945648,480.478546 148.424988,495.183258 
	C146.891953,496.735687 146.123276,499.042938 145.000000,501.000000 
	C135.645767,501.000000 126.291542,501.000000 116.555679,500.669617 
	C117.393463,498.782043 118.465202,497.077209 119.853310,495.688599 
	C245.153580,370.343140 370.475464,245.019257 495.832001,119.730095 
	C497.315491,118.247437 499.266998,117.233009 501.000000,116.000000 
z"/>
<path fill="#4DC575" opacity="1.000000" stroke="none" 
	d="
M0.999998,440.466034 
	C3.186906,438.646362 5.731668,437.652405 7.507431,435.885590 
	C37.378151,406.164429 67.153069,376.346985 96.949165,346.550873 
	C209.773987,233.726013 322.603088,120.905449 435.385559,8.038280 
	C437.198547,6.223941 438.440643,3.839128 439.974579,1.360269 
	C447.355988,1.000000 454.711945,1.000000 462.501343,1.357608 
	C461.426544,3.840084 460.190735,6.238815 458.370209,8.049718 
	C414.906250,51.283268 371.264160,94.338150 327.887177,137.658554 
	C220.949753,244.456543 114.132584,351.374939 7.229872,458.207642 
	C5.392169,460.044189 3.087021,461.412964 0.999994,463.000000 
	C1.000000,455.644012 1.000000,448.288055 0.999998,440.466034 
z"/>
<path fill="#5BD25A" opacity="1.000000" stroke="none" 
	d="
M1.000008,357.000000 
	C1.000000,347.979095 1.000000,338.958221 1.330380,329.381592 
	C3.217011,327.607422 4.920822,326.536560 6.308521,325.149475 
	C112.655792,218.848114 218.981262,112.524910 325.271393,6.166404 
	C326.753479,4.683352 327.767517,2.732507 329.000000,1.000001 
	C338.020905,1.000000 347.041779,1.000000 356.498718,1.357604 
	C355.544861,3.721753 354.428406,6.004349 352.723633,7.692999 
	C330.830444,29.378998 308.721924,50.848755 286.920044,72.625641 
	C193.654785,165.783936 100.477943,259.030762 7.230593,352.207031 
	C5.392553,354.043671 3.087297,355.412781 1.000008,357.000000 
z"/>
<path fill="#2FABAD" opacity="1.000000" stroke="none" 
	d="
M501.000000,179.000000 
	C501.000000,188.020889 501.000000,197.041794 500.669556,206.618256 
	C498.783356,208.391724 497.080078,209.462006 495.692871,210.848526 
	C400.677643,305.817413 305.684326,400.808228 210.726868,495.834869 
	C209.245331,497.317505 208.231903,499.267914 207.000000,501.000000 
	C197.979111,501.000000 188.958206,501.000000 179.501282,500.642395 
	C180.572433,498.160919 181.807724,495.764038 183.626266,493.952789 
	C243.112289,434.704285 302.700989,375.558807 362.172821,316.296051 
	C406.552063,272.072815 450.782654,227.700394 495.124146,183.439194 
	C496.845062,181.721359 499.030823,180.469162 501.000000,179.000000 
z"/>
<path fill="#46C081" opacity="1.000000" stroke="none" 
	d="
M0.999996,498.500000 
	C2.600624,497.228302 4.324064,496.633667 5.766098,495.633331 
	C7.113335,494.698761 8.163835,493.335571 9.341658,492.157776 
	C147.502106,353.997925 285.638519,215.814087 423.844788,77.700165 
	C447.869537,53.691490 472.182648,29.971277 496.393097,6.148820 
	C497.557129,5.003429 499.017090,4.158803 500.669617,3.087056 
	C501.000000,8.688041 501.000000,14.376081 500.636383,20.549080 
	C498.160675,22.543879 495.786041,23.790901 493.974121,25.601177 
	C398.409607,121.080429 302.892700,216.607330 207.370804,312.129211 
	C146.594864,372.905182 85.808372,433.670624 25.095486,494.509491 
	C23.332581,496.276093 22.347679,498.819061 21.000011,501.000000 
	C15.000000,501.000000 8.998380,501.063934 3.002228,500.912048 
	C2.319098,500.894714 1.666653,499.666687 0.999996,498.500000 
z"/>
<path fill="#3AB598" opacity="1.000000" stroke="none" 
	d="
M501.000000,115.531418 
	C499.266998,117.233009 497.315491,118.247437 495.832001,119.730095 
	C370.475464,245.019257 245.153580,370.343140 119.853310,495.688599 
	C118.465202,497.077209 117.393463,498.782043 116.087021,500.669617 
	C108.979050,501.000000 101.958107,501.000000 94.468575,501.000000 
	C95.233337,499.266632 96.248085,497.314789 97.731125,495.831024 
	C230.352921,363.142151 363.009155,230.487686 495.687012,97.854897 
	C497.076111,96.466255 498.781525,95.393997 500.669617,94.087021 
	C501.000000,101.020950 501.000000,108.041893 501.000000,115.531418 
z"/>
<path fill="#43BD86" opacity="1.000000" stroke="none" 
	d="
M21.462467,501.000000 
	C22.347679,498.819061 23.332581,496.276093 25.095486,494.509491 
	C85.808372,433.670624 146.594864,372.905182 207.370804,312.129211 
	C302.892700,216.607330 398.409607,121.080429 493.974121,25.601177 
	C495.786041,23.790901 498.160675,22.543879 500.636383,21.017021 
	C501.000000,26.358362 501.000000,31.716726 500.669617,37.624619 
	C498.427551,39.748062 496.368866,41.174892 494.625366,42.917110 
	C428.505341,108.986893 362.476654,175.148193 296.298767,241.159912 
	C247.354614,289.981110 198.175507,338.566711 149.187332,387.343933 
	C113.176003,423.200165 77.288788,459.181183 41.423325,495.183380 
	C39.885509,496.727051 39.123425,499.043518 37.999992,501.000000 
	C32.641636,501.000000 27.283274,501.000000 21.462467,501.000000 
z"/>
<path fill="#54CC67" opacity="1.000000" stroke="none" 
	d="
M412.531464,1.000000 
	C411.766296,2.733492 410.751129,4.685390 409.267853,6.169428 
	C274.979767,140.524460 140.657333,274.845154 6.313261,409.144165 
	C4.924004,410.532990 3.218539,411.605530 1.330337,412.912842 
	C1.000000,406.312347 1.000000,399.624725 1.330369,392.381470 
	C3.218857,390.605438 4.921606,389.530151 6.313323,388.142853 
	C26.379297,368.140625 46.366158,348.059052 66.444397,328.069183 
	C133.990936,260.820038 201.600540,193.634216 269.117950,126.355858 
	C309.021057,86.594048 348.809845,46.717377 388.575500,6.818089 
	C390.114014,5.274394 390.876129,2.956930 392.000000,1.000002 
	C398.687653,1.000000 405.375275,1.000000 412.531464,1.000000 
z"/>
<path fill="#2BA8B4" opacity="1.000000" stroke="none" 
	d="
M207.468658,501.000000 
	C208.231903,499.267914 209.245331,497.317505 210.726868,495.834869 
	C305.684326,400.808228 400.677643,305.817413 495.692871,210.848526 
	C497.080078,209.462006 498.783356,208.391724 500.669556,207.086914 
	C501.000000,216.354233 501.000000,225.708450 500.669708,235.618652 
	C498.782288,237.394119 497.077820,238.466156 495.689087,239.854141 
	C410.343750,325.152557 325.020508,410.473114 239.733658,495.829987 
	C238.250214,497.314636 237.234161,499.266296 236.000000,501.000000 
	C226.645767,501.000000 217.291550,501.000000 207.468658,501.000000 
z"/>
<path fill="#26A4BD" opacity="1.000000" stroke="none" 
	d="
M236.468658,501.000000 
	C237.234161,499.266296 238.250214,497.314636 239.733658,495.829987 
	C325.020508,410.473114 410.343750,325.152557 495.689087,239.854141 
	C497.077820,238.466156 498.782288,237.394119 500.669708,236.087311 
	C501.000000,246.354233 501.000000,256.708466 500.669678,267.618500 
	C498.783478,269.392487 497.080292,270.463257 495.692780,271.849915 
	C421.011169,346.483856 346.351776,421.140076 271.729584,495.833435 
	C270.247467,497.316925 269.232788,499.267395 268.000000,501.000000 
	C257.645782,501.000000 247.291550,501.000000 236.468658,501.000000 
z"/>
<path fill="#67DD43" opacity="1.000000" stroke="none" 
	d="
M234.000000,0.999997 
	C244.020889,1.000000 254.041794,1.000000 264.498779,1.357621 
	C263.547333,3.719390 262.424530,5.986887 260.732300,7.687892 
	C237.837830,30.701159 214.864243,53.635727 191.910233,76.589760 
	C130.581772,137.918198 69.264496,199.257843 7.872437,260.522522 
	C5.978418,262.412659 3.308300,263.525024 1.000001,265.000000 
	C1.000000,254.979111 1.000000,244.958206 1.330418,234.381714 
	C3.216611,232.608246 4.919747,231.537842 6.307059,230.151398 
	C80.988922,155.517090 155.648514,80.860489 230.270920,6.166726 
	C231.752945,4.683266 232.767395,2.732663 234.000000,0.999997 
z"/>
<path fill="#5FD652" opacity="1.000000" stroke="none" 
	d="
M328.531342,1.000001 
	C327.767517,2.732507 326.753479,4.683352 325.271393,6.166404 
	C218.981262,112.524910 112.655792,218.848114 6.308521,325.149475 
	C4.920822,326.536560 3.217011,327.607422 1.330380,328.912964 
	C1.000000,320.645782 1.000000,312.291534 1.357604,303.436035 
	C3.838583,301.428009 6.229091,300.188995 8.046329,298.375519 
	C55.802963,250.717316 103.500282,202.999710 151.207748,155.292252 
	C200.328766,106.171242 249.463669,57.064087 298.517883,7.876455 
	C300.408936,5.980258 301.523590,3.309722 303.000000,1.000002 
	C311.354218,1.000000 319.708466,1.000000 328.531342,1.000001 
z"/>
<path fill="#58CF60" opacity="1.000000" stroke="none" 
	d="
M1.000008,357.468292 
	C3.087297,355.412781 5.392553,354.043671 7.230593,352.207031 
	C100.477943,259.030762 193.654785,165.783936 286.920044,72.625641 
	C308.721924,50.848755 330.830444,29.378998 352.723633,7.692999 
	C354.428406,6.004349 355.544861,3.721753 356.967377,1.357604 
	C363.021149,1.000000 369.042297,1.000000 375.499084,1.357601 
	C374.310425,3.956196 372.955109,6.465959 371.023193,8.399657 
	C274.749268,104.761520 178.425964,201.074051 82.108055,297.391968 
	C57.263206,322.236816 32.443756,347.107208 7.519789,371.872406 
	C5.738307,373.642578 3.191151,374.642151 1.000005,376.000000 
	C1.000000,369.978851 1.000000,363.957703 1.000008,357.468292 
z"/>
<path fill="#40BA8D" opacity="1.000000" stroke="none" 
	d="
M501.000000,68.532860 
	C499.519806,69.655380 497.959381,70.178467 496.586731,71.011108 
	C495.617279,71.599205 494.898743,72.603271 494.074310,73.427719 
	C353.793457,213.707535 213.509918,353.984650 73.271164,494.306519 
	C71.573944,496.004730 70.453117,498.279053 69.031624,500.642212 
	C63.978088,501.000000 58.956177,501.000000 53.499771,500.642395 
	C54.219524,498.514008 55.104130,496.473755 56.566307,495.010742 
	C202.095840,349.399384 347.663666,203.826279 493.291534,58.313244 
	C495.462830,56.143658 498.413208,54.753765 501.000000,52.999992 
	C501.000000,58.021912 501.000000,63.043823 501.000000,68.532860 
z"/>
<path fill="#6BE03C" opacity="1.000000" stroke="none" 
	d="
M233.531342,0.999997 
	C232.767395,2.732663 231.752945,4.683266 230.270920,6.166726 
	C155.648514,80.860489 80.988922,155.517090 6.307059,230.151398 
	C4.919747,231.537842 3.216611,232.608246 1.330418,233.913055 
	C1.000000,223.979111 1.000000,213.958206 1.330521,203.381989 
	C3.217404,201.608414 4.921087,200.537613 6.308964,199.150772 
	C70.657104,134.851334 134.982742,70.529381 199.270096,6.169201 
	C200.752579,4.685043 201.767166,2.733520 203.000000,0.999999 
	C213.020889,1.000000 223.041794,1.000000 233.531342,0.999997 
z"/>
<path fill="#41BC8A" opacity="1.000000" stroke="none" 
	d="
M501.000000,52.533875 
	C498.413208,54.753765 495.462830,56.143658 493.291534,58.313244 
	C347.663666,203.826279 202.095840,349.399384 56.566307,495.010742 
	C55.104130,496.473755 54.219524,498.514008 53.032639,500.642395 
	C48.310745,501.000000 43.621487,501.000000 38.466106,501.000000 
	C39.123425,499.043518 39.885509,496.727051 41.423325,495.183380 
	C77.288788,459.181183 113.176003,423.200165 149.187332,387.343933 
	C198.175507,338.566711 247.354614,289.981110 296.298767,241.159912 
	C362.476654,175.148193 428.505341,108.986893 494.625366,42.917110 
	C496.368866,41.174892 498.427551,39.748062 500.669617,38.087074 
	C501.000000,42.689255 501.000000,47.378513 501.000000,52.533875 
z"/>
<path fill="#32AEA7" opacity="1.000000" stroke="none" 
	d="
M501.000000,178.531723 
	C499.030823,180.469162 496.845062,181.721359 495.124146,183.439194 
	C450.782654,227.700394 406.552063,272.072815 362.172821,316.296051 
	C302.700989,375.558807 243.112289,434.704285 183.626266,493.952789 
	C181.807724,495.764038 180.572433,498.160919 179.032623,500.642395 
	C172.978851,501.000000 166.957703,501.000000 160.500900,500.642395 
	C161.573013,498.160339 162.812103,495.767548 164.627274,493.950104 
	C237.996094,420.490631 311.416931,347.083099 384.831116,273.668884 
	C421.361450,237.138565 457.874329,200.590698 494.475159,164.131165 
	C496.255341,162.357819 498.807373,161.359314 501.000000,160.000000 
	C501.000000,166.021149 501.000000,172.042297 501.000000,178.531723 
z"/>
<path fill="#63D94B" opacity="1.000000" stroke="none" 
	d="
M1.000001,265.468628 
	C3.308300,263.525024 5.978418,262.412659 7.872437,260.522522 
	C69.264496,199.257843 130.581772,137.918198 191.910233,76.589760 
	C214.864243,53.635727 237.837830,30.701159 260.732300,7.687892 
	C262.424530,5.986887 263.547333,3.719390 264.967407,1.357621 
	C272.354248,1.000000 279.708496,1.000000 287.498718,1.357603 
	C286.545746,3.720825 285.430176,6.002414 283.726410,7.690304 
	C261.366150,29.842344 238.799194,51.786724 216.523270,74.022797 
	C146.714310,143.706848 77.012886,213.498596 7.229190,283.207977 
	C5.391216,285.043976 3.086862,286.413147 0.999998,288.000000 
	C1.000000,280.645752 1.000000,273.291504 1.000001,265.468628 
z"/>
<path fill="#4BC478" opacity="1.000000" stroke="none" 
	d="
M0.999994,463.463165 
	C3.087021,461.412964 5.392169,460.044189 7.229872,458.207642 
	C114.132584,351.374939 220.949753,244.456543 327.887177,137.658554 
	C371.264160,94.338150 414.906250,51.283268 458.370209,8.049718 
	C460.190735,6.238815 461.426544,3.840084 462.967377,1.357608 
	C467.024536,1.000000 471.049103,1.000000 475.536804,0.999996 
	C474.766541,2.733943 473.752014,4.686700 472.268616,6.170776 
	C316.980499,161.525223 161.658524,316.845764 6.314981,472.144745 
	C4.925464,473.533844 3.219261,474.606171 1.330470,475.913208 
	C1.000000,471.975464 1.000000,467.950897 0.999994,463.463165 
z"/>
<path fill="#56CD64" opacity="1.000000" stroke="none" 
	d="
M1.000005,376.466858 
	C3.191151,374.642151 5.738307,373.642578 7.519789,371.872406 
	C32.443756,347.107208 57.263206,322.236816 82.108055,297.391968 
	C178.425964,201.074051 274.749268,104.761520 371.023193,8.399657 
	C372.955109,6.465959 374.310425,3.956196 375.967377,1.357601 
	C381.022095,1.000000 386.044189,1.000000 391.533142,1.000002 
	C390.876129,2.956930 390.114014,5.274394 388.575500,6.818089 
	C348.809845,46.717377 309.021057,86.594048 269.117950,126.355858 
	C201.600540,193.634216 133.990936,260.820038 66.444397,328.069183 
	C46.366158,348.059052 26.379297,368.140625 6.313323,388.142853 
	C4.921606,389.530151 3.218857,390.605438 1.330369,391.912903 
	C1.000000,386.977905 1.000000,381.955811 1.000005,376.466858 
z"/>
<path fill="#209EC9" opacity="1.000000" stroke="none" 
	d="
M322.000000,501.000000 
	C312.312439,501.000000 302.624878,501.000000 292.555847,500.669678 
	C293.392548,498.783417 294.463470,497.080322 295.850067,495.692719 
	C362.483459,429.010986 429.139221,362.351593 495.832977,295.730225 
	C497.316772,294.248016 499.267242,293.232971 501.000000,292.000000 
	C501.000000,301.687561 501.000000,311.375122 500.669617,321.618439 
	C498.783234,323.392487 497.080139,324.463593 495.692291,325.850220 
	C439.010315,382.482697 382.350922,439.137848 325.730804,495.832123 
	C324.248535,497.316376 323.233124,499.266907 322.000000,501.000000 
z"/>
<path fill="#73E62E" opacity="1.000000" stroke="none" 
	d="
M146.000000,1.000000 
	C157.354233,1.000000 168.708450,1.000000 180.444214,1.330348 
	C179.607910,3.216263 178.537216,4.918844 177.151047,6.306218 
	C120.184280,63.322491 63.194820,120.316093 6.166245,177.270538 
	C4.682512,178.752350 2.732541,179.767319 1.000000,181.000000 
	C1.000000,169.312439 1.000000,157.624878 1.330415,145.381714 
	C3.097462,143.727295 4.671966,142.768448 5.950389,141.509033 
	C32.012894,115.834389 58.088387,90.172585 84.061569,64.407692 
	C103.549362,45.076160 122.913292,25.619545 142.274445,6.160989 
	C143.752411,4.675590 144.768967,2.731098 146.000000,1.000000 
z"/>
<path fill="#1B9BD1" opacity="1.000000" stroke="none" 
	d="
M322.468628,501.000000 
	C323.233124,499.266907 324.248535,497.316376 325.730804,495.832123 
	C382.350922,439.137848 439.010315,382.482697 495.692291,325.850220 
	C497.080139,324.463593 498.783234,323.392487 500.669617,322.087097 
	C501.000000,333.354218 501.000000,344.708466 500.669617,356.618347 
	C498.549225,358.626099 496.622131,359.939270 494.989594,361.550812 
	C464.801727,391.350037 434.623413,421.159058 404.499847,451.023254 
	C389.728241,465.667694 375.035004,480.391937 360.418823,495.191193 
	C358.888062,496.741150 358.121246,499.045624 357.000000,501.000000 
	C345.645782,501.000000 334.291534,501.000000 322.468628,501.000000 
z"/>
<path fill="#0F90E8" opacity="1.000000" stroke="none" 
	d="
M501.000000,398.000000 
	C501.000000,432.260284 501.000000,466.520538 501.000000,501.000000 
	C466.979431,501.000000 432.958374,501.000000 398.556519,500.669922 
	C399.276398,498.902191 400.230988,497.318695 401.499237,496.048248 
	C433.031616,464.461548 464.587799,432.898468 496.188385,401.379944 
	C497.555725,400.016174 499.385559,399.116058 501.000000,398.000000 
z"/>
<path fill="#77EA26" opacity="1.000000" stroke="none" 
	d="
M145.531342,1.000000 
	C144.768967,2.731098 143.752411,4.675590 142.274445,6.160989 
	C122.913292,25.619545 103.549362,45.076160 84.061569,64.407692 
	C58.088387,90.172585 32.012894,115.834389 5.950389,141.509033 
	C4.671966,142.768448 3.097462,143.727295 1.330415,144.913055 
	C1.000000,130.979111 1.000000,116.958214 1.330206,102.381149 
	C3.095234,100.727463 4.676065,99.776230 5.943500,98.511032 
	C36.870209,67.639000 67.773109,36.743061 98.631187,5.802448 
	C99.991554,4.438433 100.887650,2.611374 102.000000,1.000000 
	C116.354225,1.000000 130.708450,1.000000 145.531342,1.000000 
z"/>
<path fill="#23A1C3" opacity="1.000000" stroke="none" 
	d="
M501.000000,291.531372 
	C499.267242,293.232971 497.316772,294.248016 495.832977,295.730225 
	C429.139221,362.351593 362.483459,429.010986 295.850067,495.692719 
	C294.463470,497.080322 293.392548,498.783417 292.087189,500.669678 
	C284.312408,501.000000 276.624847,501.000000 268.468628,501.000000 
	C269.232788,499.267395 270.247467,497.316925 271.729584,495.833435 
	C346.351776,421.140076 421.011169,346.483856 495.692780,271.849915 
	C497.080292,270.463257 498.783478,269.392487 500.669678,268.087158 
	C501.000000,275.687592 501.000000,283.375153 501.000000,291.531372 
z"/>
<path fill="#7FF117" opacity="1.000000" stroke="none" 
	d="
M101.531342,1.000000 
	C100.887650,2.611374 99.991554,4.438433 98.631187,5.802448 
	C67.773109,36.743061 36.870209,67.639000 5.943500,98.511032 
	C4.676065,99.776230 3.095234,100.727463 1.330206,101.912491 
	C1.000000,68.406395 1.000000,34.812790 1.000000,1.000000 
	C34.353909,1.000000 67.708298,1.000000 101.531342,1.000000 
z"/>
<path fill="#1797D9" opacity="1.000000" stroke="none" 
	d="
M501.000000,397.531311 
	C499.385559,399.116058 497.555725,400.016174 496.188385,401.379944 
	C464.587799,432.898468 433.031616,464.461548 401.499237,496.048248 
	C400.230988,497.318695 399.276398,498.902191 398.087830,500.669922 
	C384.645782,501.000000 371.291534,501.000000 357.468658,501.000000 
	C358.121246,499.045624 358.888062,496.741150 360.418823,495.191193 
	C375.035004,480.391937 389.728241,465.667694 404.499847,451.023254 
	C434.623413,421.159058 464.801727,391.350037 494.989594,361.550812 
	C496.622131,359.939270 498.549225,358.626099 500.669617,357.087006 
	C501.000000,370.354218 501.000000,383.708466 501.000000,397.531311 
z"/>
<path fill="#34B0A4" opacity="1.000000" stroke="none" 
	d="
M501.000000,159.533875 
	C498.807373,161.359314 496.255341,162.357819 494.475159,164.131165 
	C457.874329,200.590698 421.361450,237.138565 384.831116,273.668884 
	C311.416931,347.083099 237.996094,420.490631 164.627274,493.950104 
	C162.812103,495.767548 161.573013,498.160339 160.032623,500.642395 
	C155.310745,501.000000 150.621490,501.000000 145.466125,501.000000 
	C146.123276,499.042938 146.891953,496.735687 148.424988,495.183258 
	C162.945648,480.478546 177.562332,465.868042 192.215591,451.295044 
	C247.509094,396.304352 302.879456,341.390808 358.118835,286.345856 
	C403.806610,240.818863 449.345093,195.142136 494.979218,149.561279 
	C496.604858,147.937500 498.545258,146.628845 500.669495,145.086670 
	C501.000000,149.689255 501.000000,154.378510 501.000000,159.533875 
z"/>
<path fill="#62D84E" opacity="1.000000" stroke="none" 
	d="
M0.999998,288.466125 
	C3.086862,286.413147 5.391216,285.043976 7.229190,283.207977 
	C77.012886,213.498596 146.714310,143.706848 216.523270,74.022797 
	C238.799194,51.786724 261.366150,29.842344 283.726410,7.690304 
	C285.430176,6.002414 286.545746,3.720825 287.967346,1.357603 
	C292.689240,1.000000 297.378510,1.000000 302.533875,1.000002 
	C301.523590,3.309722 300.408936,5.980258 298.517883,7.876455 
	C249.463669,57.064087 200.328766,106.171242 151.207748,155.292252 
	C103.500282,202.999710 55.802963,250.717316 8.046329,298.375519 
	C6.229091,300.188995 3.838583,301.428009 1.357604,302.967346 
	C1.000000,298.310760 1.000000,293.621490 0.999998,288.466125 
z"/>
<path fill="#6EE336" opacity="1.000000" stroke="none" 
	d="
M1.000000,181.468567 
	C2.732541,179.767319 4.682512,178.752350 6.166245,177.270538 
	C63.194820,120.316093 120.184280,63.322491 177.151047,6.306218 
	C178.537216,4.918844 179.607910,3.216263 180.912872,1.330348 
	C188.020950,1.000000 195.041901,1.000000 202.531433,0.999999 
	C201.767166,2.733520 200.752579,4.685043 199.270096,6.169201 
	C134.982742,70.529381 70.657104,134.851334 6.308964,199.150772 
	C4.921087,200.537613 3.217404,201.608414 1.330521,202.913330 
	C1.000000,195.979050 1.000000,188.958099 1.000000,181.468567 
z"/>
</svg>